<svg xmlns="http://www.w3.org/2000/svg" xmlns:xlink="http://www.w3.org/1999/xlink" version="1.1" id="layer" x="0px" y="0px" style="enable-background:new 0 0 652 652;" xml:space="preserve" viewBox="22.24 263.37 600.06 115.46">
<style type="text/css">
	.st0{fill:#FF7F00;}
	.st1{fill:#535353;}
</style>
<path class="st0" d="M333.1,301.4v6.3h16.4v35.1h6.7v-35.1h16.5v-6.3H333.1z M310.5,319.1H294v-11.5h16.7c1,0,1.9,0.1,2.8,0.4  c0.8,0.2,1.5,0.6,2,1c0.5,0.5,0.9,1.1,1.2,1.8c0.3,0.7,0.4,1.6,0.4,2.6c0,1-0.1,1.8-0.4,2.5c-0.3,0.7-0.6,1.2-1.1,1.7  c-0.6,0.5-1.3,0.8-2.1,1.1C312.6,319,311.6,319.1,310.5,319.1 M318,323.8c1.2-0.7,2.2-1.6,3.1-2.8c1-1.1,1.7-2.3,2.2-3.6  c0.5-1.3,0.7-2.7,0.7-4.2c0-1.9-0.3-3.5-0.9-5c-0.6-1.5-1.5-2.7-2.7-3.8c-1.2-1.1-2.6-1.9-4.3-2.4c-1.6-0.5-3.4-0.7-5.4-0.7h-23.4  v41.3h6.6v-17.3h13.9l9.8,17.3h7.2l-9.8-17.6C316.1,324.8,317.1,324.4,318,323.8 M248.4,323.9h15.7v-6.3h-15.7v-10h26v-6.3h-32.5  v41.3h34.1v-6.2h-27.6V323.9z M206.3,301.4h-6.6v41.3h32.2v-6.2h-25.6V301.4z M159.5,325.7l7.4-14.8l7.4,14.8H159.5z M164.3,301.4  l-20,41.3h7.1l5.2-10.7h20.7l5.3,10.7h7.1l-20.3-41.3H164.3z"/>
<polygon class="st1" points="407.9,301.4 401.3,301.4 401.3,342.7 433.5,342.7 433.5,336.4 407.9,336.4 "/>
<path class="st1" d="M476.6,328.3c-0.7,1.8-1.7,3.4-3,4.8c-1.4,1.4-3,2.5-4.7,3.2c-1.7,0.7-3.6,1.1-5.7,1.1c-2.1,0-4.1-0.4-5.7-1.1  c-1.7-0.7-3.2-1.8-4.6-3.2c-1.4-1.4-2.4-3-3.1-4.8c-0.7-1.8-1-3.9-1-6.2c0-2.2,0.3-4.2,1-6c0.7-1.8,1.7-3.4,3.1-4.9  c1.4-1.4,2.9-2.6,4.6-3.3c1.7-0.7,3.6-1.1,5.7-1.1c2.1,0,4,0.4,5.8,1.1c1.7,0.7,3.3,1.8,4.6,3.3c1.3,1.4,2.2,3.1,2.9,4.9  c0.7,1.8,1,3.8,1,6C477.6,324.4,477.2,326.5,476.6,328.3 M478.3,306.8c-2-2.1-4.3-3.6-6.8-4.7c-2.5-1-5.3-1.6-8.3-1.6  c-3.1,0-5.9,0.5-8.4,1.6c-2.5,1-4.8,2.6-6.7,4.7c-2,2-3.5,4.4-4.5,6.9c-1,2.6-1.5,5.4-1.5,8.4c0,3.1,0.5,6,1.5,8.5  c1,2.6,2.5,4.9,4.5,7c2,2,4.2,3.5,6.8,4.5c2.5,1,5.6,1.5,8.3,1.5c2.7,0,6.1-0.6,8.3-1.5c2.5-1,4.7-2.4,6.7-4.4  c1.1-1.1,1.9-2.2,2.7-3.4c0.8-1.2,1.4-2.5,1.9-3.8c0.4-1.2,0.8-2.6,1.1-4c0.3-1.4,0.4-2.9,0.4-4.4c0-3-0.5-5.9-1.5-8.4  C481.9,311.1,480.3,308.8,478.3,306.8"/>
<path class="st1" d="M516.7,319.9v6.2h10.7v4.8c-0.8,1.2-1.5,2.1-2.4,2.9c-0.9,0.9-1.8,1.5-2.8,2.1c-1,0.6-2.1,1-3.3,1.2  c-3,0.7-6.6,0.4-9.3-0.7c-1.7-0.7-3.3-1.8-4.6-3.2c-1.3-1.4-2.4-3-3.1-4.8c-0.7-1.8-1-3.9-1-6.2c0-2.2,0.3-4.2,1-6  c0.7-1.8,1.8-3.5,3.1-4.9c1.4-1.5,2.9-2.6,4.6-3.3c1.7-0.7,3.8-1.1,5.8-1.1c3,0,5.1,0.8,7.2,1.9c3.9,2.1,5.9,5.9,5.9,5.9l5.2-3.7  l-0.4-0.7c-1-1.6-2.1-3-3.4-4.2c-1.3-1.2-2.7-2.2-4.3-3.1c-1.5-0.8-3.2-1.4-4.9-1.9c-1.7-0.4-3.5-0.6-5.3-0.6  c-3.1,0-5.9,0.5-8.4,1.6c-2.5,1.1-4.8,2.6-6.7,4.7c-2,2-3.6,4.4-4.6,7c-1,2.6-1.5,5.4-1.5,8.4c0,3.1,0.5,6,1.5,8.6  c1,2.6,2.5,5,4.5,7c2,2,4.2,3.5,6.8,4.5c2.5,1,5.3,1.4,8.4,1.4c1.9,0,3.8-0.2,5.7-0.7c1.8-0.5,3.5-1.1,5.1-2c1.6-0.9,3-2,4.3-3.3  c1.3-1.3,2.4-2.8,3.3-4.5v-13.1H516.7z"/>
<rect x="546.6" y="301.3" class="st1" width="6.6" height="41.4"/>
<path class="st1" d="M599.8,328.2c0,0-4.2,9.2-13.9,9.2c-2.1,0-4.1-0.4-5.8-1.1c-1.7-0.7-3.2-1.8-4.6-3.2c-1.4-1.4-2.4-3-3.1-4.9  c-0.7-1.8-1-3.9-1-6.2c0-2.2,0.3-4.2,1-6c0.7-1.8,1.7-3.4,3.1-4.9c1.4-1.5,2.9-2.6,4.6-3.3c1.7-0.7,3.7-1.1,5.8-1.1  c8.9,0,13.1,7.8,13.1,7.8l5.1-3.8l-0.4-0.7c-1-1.5-2.1-2.9-3.4-4.2c-1.3-1.2-2.7-2.2-4.3-3c-1.6-0.8-3.2-1.4-4.9-1.9  c-1.7-0.4-3.5-0.6-5.3-0.6c-3.1,0-5.9,0.5-8.4,1.6c-2.5,1-4.8,2.6-6.7,4.7c-2,2-3.6,4.4-4.6,7c-1,2.6-1.5,5.4-1.5,8.4  c0,3.1,0.5,6,1.5,8.6c1,2.6,2.5,5,4.6,7c2,2,4.2,3.5,6.8,4.5c2.5,1,5.3,1.4,8.4,1.4c1.9,0,3.9-0.2,5.7-0.7c1.8-0.4,3.6-1.1,5.3-2  c1.7-1,3.2-2.2,4.4-3.6c1.3-1.4,2.4-2.9,3.3-4.7l0.3-0.6L599.8,328.2z"/>
<path class="st1" d="M617.2,305.6L617.2,305.6l-2,0v-1h2v0c0.3,0,0.5,0.2,0.5,0.5C617.7,305.3,617.5,305.6,617.2,305.6 M618.2,306.5  c0.2-0.1,0.3-0.2,0.4-0.4c0.1-0.2,0.2-0.3,0.3-0.5c0.1-0.2,0.1-0.4,0.1-0.6c0-0.3,0-0.5-0.1-0.7c-0.1-0.2-0.2-0.4-0.4-0.5  c-0.2-0.2-0.4-0.3-0.6-0.3c-0.2-0.1-0.5-0.1-0.7-0.1H614v5.6h1.3v-2.2h1.4l1.2,2.2h1.4l-1.3-2.3  C618.1,306.6,618.1,306.6,618.2,306.5 M616.5,310.7c-2.5,0-4.5-2-4.5-4.5c0-2.5,2-4.5,4.5-4.5c2.5,0,4.5,2,4.5,4.5  C621,308.7,619,310.7,616.5,310.7 M616.5,300.4c-3.2,0-5.8,2.6-5.8,5.8c0,3.2,2.6,5.7,5.8,5.7c3.2,0,5.8-2.6,5.8-5.7  C622.3,303,619.7,300.4,616.5,300.4"/>
<path class="st1" d="M88.1,288.2c6.2-7.4,4.1-18.7-3.1-23.1c-6.3-3.8-16-1.8-21.7,10.8c-1.3,3-4.4,13-7.5,24.1  c-2.5,6.9-8,20.2-12.5,27c-0.3,0.4-0.5,0.8-0.7,1.1c-9,13.1-17.5,26.3-18.9,30c-3.4,9-0.8,16.9,7.1,19.9c7.9,3,18.2-2.4,20-11.9  c1.1-5.8,0.9-17,3.4-31.3c1.4-6,5.4-20,14.7-29.4C75.5,299.1,81.2,296.5,88.1,288.2 M122.9,352.8c-4.8-11.2-45.9-65.4-38.1-48.3  c16.8,37,8.3,41.2,12.3,61.1c1.9,9.6,12,15.1,19.9,12.1C124,375,128.4,365.7,122.9,352.8"/>
<path class="st0" d="M89.4,336.4c0,7.9-6.4,14.3-14.3,14.3c-7.9,0-14.3-6.4-14.3-14.3c0-7.9,6.4-14.3,14.3-14.3  C82.9,322.1,89.4,328.5,89.4,336.4"/>
</svg>